<?xml version="1.0" encoding="utf-8"?>
<!-- Generator: Adobe Illustrator 22.1.0, SVG Export Plug-In . SVG Version: 6.00 Build 0)  -->
<svg version="1.2" baseProfile="tiny" id="Layer_1" xmlns="http://www.w3.org/2000/svg" xmlns:xlink="http://www.w3.org/1999/xlink"
	 x="0px" y="0px" viewBox="0 0 637.7 637.8" xml:space="preserve">
<path fill="#FF9600" d="M398.3,22.5c163.7,43.9,260.8,212.1,217,375.8c-43.9,163.7-212.1,260.8-375.8,217
	C75.8,571.4-21.4,403.2,22.5,239.5S234.6-21.3,398.3,22.5z"/>
<g>
	<g>
		<path fill="#FFFFFF" d="M437.1,402.9h5.3c3,0,5.9,0.6,9.2,1.2c4.4,0.9,9.2,2.1,14.2,3.6v-33.1c-6.5-3-14.8-4.4-22.8-5.3
			c-3.3-0.3-6.8-0.6-9.8-0.6c-37.9,0-60.5,22.8-60.5,61.2c0,3.5,0.3,7.1,0.6,10.6c1.5,12.1,5.3,22.5,11.6,30.5
			c1.2,1.5,2.4,3,3.6,4.1c2.1,2.1,4.1,3.8,6.2,5.3c2.4,1.8,4.7,3,7.4,4.4c8.6,4.1,19,6.5,30.8,6.5c4.4,0,9.2-0.3,14.2-0.9
			c1.5-0.3,3-0.3,4.1-0.6c1.5-0.3,3-0.6,4.1-0.9c3.6-0.9,6.8-1.8,9.8-3.3v-33.1c-5,1.8-9.8,3-14.2,3.5c-3.3,0.6-6.5,0.9-9.2,1.2h-3
			c-16.6,0-26.4-10.1-26.4-27.2v-1C413.4,413.3,422.3,403.8,437.1,402.9z M435,334.3c-6.8-18.6-22.8-28.7-43.6-33.7
			c18.7-9.8,30.5-26.6,27.9-55c-3.6-38.8-37.1-51.5-79.4-55.3v-53.5l-32.9-0.3v52.1c-8.6,0-17.5,0-26.1,0.3v-52.4H248V190
			c-7.1,0.3-13.9,0.3-20.7,0.3h-45.4v34.9c0,0,24.3-0.3,23.7,0c13.3,0,17.5,7.7,19,14.5v61.2c0,3.3,0,85.8,0,85.8
			c-0.6,4.1-3,10.9-12.4,10.9c0.6,0.3-23.7-0.3-23.7-0.3l-6.5,39h42.7c7.7,0,15.7,0,23.4,0.3V491h32.6v-53.5
			c8.9,0.3,17.5,0.3,26.1,0.3v53.5h32.9v-68c0-10.9,1.5-21,4.1-30.2c-21.9,6.2-49.8,4.7-62.5,4.7V326c20.5,0,79.7-5.3,90.4,25.7
			c14.8-11.2,34.1-17.2,56.3-17.2C429.4,334,431.8,334,435,334.3z M281.5,292.9v-65.4c18.4,0,76.5-5.9,76.5,32.5
			C358.3,297.3,299.9,292.6,281.5,292.9z"/>
	</g>
</g>
</svg>
