<?xml version="1.0" encoding="utf-8"?>
<!-- Generator: Adobe Illustrator 22.1.0, SVG Export Plug-In . SVG Version: 6.00 Build 0)  -->
<svg version="1.2" baseProfile="tiny" id="Layer_1" xmlns="http://www.w3.org/2000/svg" xmlns:xlink="http://www.w3.org/1999/xlink"
	 x="0px" y="0px" viewBox="0 0 637.7 637.8" xml:space="preserve">
<path fill="#FFB400" d="M398.3,22.5c163.7,43.9,260.8,212.1,217,375.8c-43.9,163.7-212.1,260.8-375.8,217
	C75.8,571.4-21.4,403.2,22.5,239.5S234.6-21.3,398.3,22.5z"/>
<path fill="#FFFFFF" d="M241.5,177.1l60.3,15.8l13.4-48.9l33.7,8.8l-13.4,48.9l25.7,6.7l13.4-48.9l34.6,9l-13.4,48.9
	c45.1,15.6,65.9,38.5,62.5,68.7c-3.4,30.2-19.3,44.8-47.8,43.9c35.4,13.1,47.4,38.2,35.8,75.2c-11.6,37.1-49.2,50.3-112.9,39.6
	l-13.4,49l-34.6-9l13.4-48.8l-25.7-6.7L259.7,478l-33.7-8.8l13.4-48.8l-60.3-15.8l17.6-29.7l16.9,4.4c5,0.8,9.5,0,13.5-2.2
	s6.7-5.6,8-10.2l35.6-129.8c1.3-4.6,0.7-8.8-1.7-12.7c-2.4-3.9-5.9-6.7-10.6-8.5l-25.7-6.7L241.5,177.1z M326.7,233.8l-18,65.6
	c3.1,1.4,16.2,3.7,39.4,7c23.2,3.3,38.8-3.2,46.7-19.7c1.5-18.1-8.6-31.5-30.3-40.2C342.8,237.8,330.2,233.6,326.7,233.8z
	 M302,323.8l-20.1,73.3c4.1,1.6,20.4,4.1,48.8,7.4s47.1-3.1,56.1-19.3c0.6-18.9-12.2-33.9-38.5-44.9
	C322,329.5,306.6,323.9,302,323.8z"/>
</svg>
