<?xml version="1.0" encoding="utf-8"?>
<!-- Generator: Adobe Illustrator 22.1.0, SVG Export Plug-In . SVG Version: 6.00 Build 0)  -->
<svg version="1.2" baseProfile="tiny" id="Layer_1" xmlns="http://www.w3.org/2000/svg" xmlns:xlink="http://www.w3.org/1999/xlink"
	 x="0px" y="0px" viewBox="0 0 637.7 637.8" xml:space="preserve">
<path fill="#2374BB" d="M398.3,22.5c163.7,43.9,260.8,212.1,217,375.8c-43.9,163.7-212.1,260.8-375.8,217
	C75.8,571.4-21.4,403.2,22.5,239.5S234.6-21.3,398.3,22.5z"/>
<path fill="#FFFFFF" d="M205.5,198.1l-18.2,58.3c-1.1,2.3-1.1,2.3,1.1,2.3h240.4c2.3,0,2.3,0,1.1,2.3l-19.4,60.7
	c-5.7,18.7-11.4,36.2-17.1,54.8c-1.1,3.5-1.1,3.5-4.6,3.5H153.1c-1.1,0-2.3,0-3.4,0c-1.1,0-2.3,0-2.3,1.2l0,0
	c-5.7,18.7-12.5,37.3-18.2,56c-1.1,2.3-1.1,2.3,2.3,2.3c88.9,0,178.9,0,267.8,0c8,0,16-1.2,22.8-4.7c16-5.8,29.6-16.3,39.9-29.2
	c6.8-8.2,12.5-17.5,17.1-28c6.8-21,13.7-42,20.5-63c5.7-17.5,11.4-35,17.1-52.5c3.4-10.5,4.6-21,2.3-31.5s-8-18.7-16-24.5
	c-5.7-3.5-11.4-5.8-17.1-7c-1.1-1.2-2.3-1.2-3.4-1.2H208.9C207.8,198.1,206.6,198.1,205.5,198.1z M191.8,347.5L191.8,347.5
	c23.9,0,46.7,0,70.6,0c1.1,0,2.3-1.2,2.3-2.3c4.6-12.8,9.1-25.7,12.5-38.5c1.1-4.7,3.4-9.3,4.6-14c0-1.2,0-2.3-1.1-2.3h-1.1
	c-46.7,0-93.4,0-140.1,0c-1.1,0-2.3,1.2-3.4,2.3c-5.7,17.5-11.4,35-18.2,52.5c0,1.2,0,2.3,1.1,2.3
	C143.9,347.5,167.9,347.5,191.8,347.5L191.8,347.5z"/>
</svg>
