<?xml version="1.0" encoding="utf-8"?>
<!-- Generator: Adobe Illustrator 24.0.2, SVG Export Plug-In . SVG Version: 6.00 Build 0)  -->
<svg version="1.1" id="Warstwa_1" xmlns="http://www.w3.org/2000/svg" xmlns:xlink="http://www.w3.org/1999/xlink" x="0px" y="0px"
	 viewBox="0 0 1057.3 1057.3" style="enable-background:new 0 0 1057.3 1057.3;" xml:space="preserve">
<style type="text/css">
	.st0{fill:#F9F9F9;}
	.st1{fill:url(#SVGID_1_);}
	.st2{fill:url(#SVGID_2_);}
	.st3{fill:#383838;}
	.st4{fill:url(#SVGID_3_);}
	.st5{fill:url(#SVGID_4_);}
	.st6{fill:url(#SVGID_5_);}
	.st7{fill:url(#SVGID_6_);}
	.st8{fill:url(#SVGID_7_);}
	.st9{fill:url(#SVGID_8_);}
	.st10{fill:#FFFFFF;}
	.st11{fill:#37B34A;}
</style>
<path class="st0" d="M665.4,18.1c281.9,75.7,449.3,365.2,373.8,647.3c-75.7,281.9-365.2,449.3-647.3,373.8
	C110,963.7-57.4,673.9,18.1,391.8S383.6-57.2,665.4,18.1z"/>
<g>
	
		<linearGradient id="SVGID_1_" gradientUnits="userSpaceOnUse" x1="600.6953" y1="342.8343" x2="720.7767" y2="468.0619" gradientTransform="matrix(1 0 0 -1 0 1055.8898)">
		<stop  offset="0" style="stop-color:#37B34A"/>
		<stop  offset="0.3162" style="stop-color:#36B149"/>
		<stop  offset="0.4983" style="stop-color:#31A846"/>
		<stop  offset="0.6463" style="stop-color:#2A9A41"/>
		<stop  offset="0.7761" style="stop-color:#1F863A"/>
		<stop  offset="0.8927" style="stop-color:#116D31"/>
		<stop  offset="1" style="stop-color:#004E26"/>
	</linearGradient>
	<path class="st1" d="M800.4,531.3c0,40.5-9.4,78.8-26,113.2c-27.2,55.9-73.9,100.9-131.6,127.1l-49.3-125.1
		c30.3-16.2,53.4-43.2,63.9-76c4.1-12.5,6.1-25.6,6.1-39.3c0-3.3-0.2-6.6-0.4-9.8c0-1.2-0.2-2.7-0.4-3.9H800
		C800.2,522.1,800.4,526.8,800.4,531.3z"/>
	
		<linearGradient id="SVGID_2_" gradientUnits="userSpaceOnUse" x1="303.9875" y1="464.1837" x2="776.6424" y2="638.6763" gradientTransform="matrix(1 0 0 -1 0 1055.8898)">
		<stop  offset="0" style="stop-color:#80C242"/>
		<stop  offset="1" style="stop-color:#009345"/>
	</linearGradient>
	<path class="st2" d="M799,266.6H531.6c-150.1,0-275.4,119.6-274.7,265.7c0.2,47.5,13.3,91.9,35.8,130.4
		c37.7,63.9,101.7,111,177.7,127.1c-76-16.2-140.2-63.5-177.7-127.3c-1.8-12.9-2.7-25.2-2.7-36.9c0-172.2,180.4-214.3,188.1-216.2
		c0.2,0,0.2,0,0.2,0c15.6-6.1,32.3-9.4,50.2-9.4H662C737.6,400.1,799,340.5,799,266.6L799,266.6z"/>
	<path class="st3" d="M642.6,771.6c-34.6,15.8-73.3,24.4-114,24.4c-11.1,0-21.9-0.6-32.8-1.8c-6.1-0.8-12.1-1.6-18.2-2.7
		c-2.5-0.4-4.9-1-7.4-1.4c-76-16.2-140.2-63.5-177.7-127.3c-1.8-12.9-2.7-25.2-2.7-36.9c0-172.2,180.4-214.3,188.1-216.2
		c-49.5,19.4-84.3,66.7-84.3,121.8c0,72.5,60.2,131.2,134.7,131.2c23.5,0,45.4-5.7,64.7-16.2L642.6,771.6z"/>
	
		<linearGradient id="SVGID_3_" gradientUnits="userSpaceOnUse" x1="493.618" y1="448.0567" x2="326.83" y2="506.2752" gradientTransform="matrix(1 0 0 -1 0 1055.8898)">
		<stop  offset="0" style="stop-color:#80C242"/>
		<stop  offset="1" style="stop-color:#009345"/>
	</linearGradient>
	<path class="st4" d="M642.6,771.6c-34.6,15.8-73.3,24.4-114,24.4c-11.1,0-21.9-0.6-32.8-1.8c-6.1-0.8-12.1-1.6-18.2-2.7
		c-2.5-0.4-4.9-1-7.4-1.4c-76-16.2-140.2-63.5-177.7-127.3c-1.8-12.9-2.7-25.2-2.7-36.9c0-172.2,180.4-214.3,188.1-216.2
		c-49.5,19.4-84.3,66.7-84.3,121.8c0,72.5,60.2,131.2,134.7,131.2c23.5,0,45.4-5.7,64.7-16.2L642.6,771.6z"/>
	<g>
		
			<linearGradient id="SVGID_4_" gradientUnits="userSpaceOnUse" x1="440.66" y1="669.8222" x2="286.4796" y2="394.5001" gradientTransform="matrix(1 0 0 -1 0 1055.8898)">
			<stop  offset="0" style="stop-color:#009345"/>
			<stop  offset="1.784479e-02" style="stop-color:#109944"/>
			<stop  offset="6.976181e-02" style="stop-color:#3BA841"/>
			<stop  offset="0.1245" style="stop-color:#5FB53F"/>
			<stop  offset="0.1814" style="stop-color:#7DBF3D"/>
			<stop  offset="0.2415" style="stop-color:#94C83C"/>
			<stop  offset="0.3059" style="stop-color:#A4CD3B"/>
			<stop  offset="0.3778" style="stop-color:#AED13A"/>
			<stop  offset="0.4724" style="stop-color:#B1D23A"/>
			<stop  offset="0.5646" style="stop-color:#AED13A"/>
			<stop  offset="0.6443" style="stop-color:#A3CD3B"/>
			<stop  offset="0.7195" style="stop-color:#91C73C"/>
			<stop  offset="0.7919" style="stop-color:#78BE3E"/>
			<stop  offset="0.8622" style="stop-color:#58B240"/>
			<stop  offset="0.9311" style="stop-color:#30A442"/>
			<stop  offset="0.9975" style="stop-color:#029445"/>
			<stop  offset="1" style="stop-color:#009345"/>
		</linearGradient>
		<path class="st5" d="M292.5,662.7c-1.2-7.2-2.3-14.3-2.9-21.5c-0.6-7.2-1-14.5-1-21.7c-0.2-14.5,1.4-29.1,4.5-43.4
			c5.9-28.7,19-55.9,37.3-78.8c18.2-22.9,41.4-41.8,66.7-56.3c25.4-14.3,52.6-25.2,81.1-31.1c-13.9,4.1-27.4,9.2-40.5,15.1
			c-13.1,5.9-25.8,12.5-38.1,20.1c-12.1,7.6-24,16-34.6,25.2c-10.9,9.2-20.9,19.4-29.7,30.7c-8.8,11.1-16.6,23.3-22.7,36
			c-6.3,12.7-11.3,26.2-14.5,40.1c-3.3,13.9-5.5,28-6.1,42.4C290.5,633.8,291.3,648.2,292.5,662.7z"/>
	</g>
	
		<linearGradient id="SVGID_5_" gradientUnits="userSpaceOnUse" x1="503.9818" y1="503.9319" x2="800.4227" y2="503.9319" gradientTransform="matrix(1 0 0 -1 0 1055.8898)">
		<stop  offset="0" style="stop-color:#51B748"/>
		<stop  offset="0.6092" style="stop-color:#51B748"/>
		<stop  offset="0.7068" style="stop-color:#51B748"/>
		<stop  offset="0.7674" style="stop-color:#4CB548"/>
		<stop  offset="0.8425" style="stop-color:#3CAD48"/>
		<stop  offset="0.9251" style="stop-color:#23A247"/>
		<stop  offset="1" style="stop-color:#069447"/>
	</linearGradient>
	<path class="st6" d="M800.4,519.4v12.1c0,23.1-3.1,45.7-8.8,67.1c-4.3,16-10,31.5-17.2,46.1c8.2-64.9-76-73.5-117.1-73.9
		c-13.1-0.2-21.9,0.6-21.9,0.6h-54c-25.4,0-48.1-11.9-62.2-30.5c-9.6-12.5-15.1-28-15.1-44.8c0-10.2,4.3-19.4,11.1-26
		c6.8-6.8,16.4-10.9,26.8-10.9h196.7C772.6,459.2,800.4,486,800.4,519.4z"/>
	
		<linearGradient id="SVGID_6_" gradientUnits="userSpaceOnUse" x1="603.0519" y1="444.9831" x2="438.94" y2="366.0831" gradientTransform="matrix(1 0 0 -1 0 1055.8898)">
		<stop  offset="0" style="stop-color:#80C242"/>
		<stop  offset="1" style="stop-color:#009345"/>
	</linearGradient>
	<path class="st7" d="M774.2,644.7c-27.2,55.9-73.9,100.9-131.6,127.1c-303.4,21.1-248.7-240.3-248.7-240.3
		c0,72.5,60.2,131.2,134.7,131.2c23.5,0,45.4-5.7,64.7-16.2c4.7-2.5,9.2-5.3,13.5-8.4c23.5-16.4,41.6-40.1,50.4-67.6
		C698.3,571.2,782.4,579.8,774.2,644.7z"/>
	<g>
		
			<linearGradient id="SVGID_7_" gradientUnits="userSpaceOnUse" x1="358.5577" y1="492.9107" x2="606.5659" y2="244.9027" gradientTransform="matrix(1 0 0 -1 0 1055.8898)">
			<stop  offset="0" style="stop-color:#009345"/>
			<stop  offset="1.784479e-02" style="stop-color:#109944"/>
			<stop  offset="6.976181e-02" style="stop-color:#3BA841"/>
			<stop  offset="0.1245" style="stop-color:#5FB53F"/>
			<stop  offset="0.1814" style="stop-color:#7DBF3D"/>
			<stop  offset="0.2415" style="stop-color:#94C83C"/>
			<stop  offset="0.3059" style="stop-color:#A4CD3B"/>
			<stop  offset="0.3778" style="stop-color:#AED13A"/>
			<stop  offset="0.4724" style="stop-color:#B1D23A"/>
			<stop  offset="0.5646" style="stop-color:#AED13A"/>
			<stop  offset="0.6443" style="stop-color:#A3CD3B"/>
			<stop  offset="0.7195" style="stop-color:#91C73C"/>
			<stop  offset="0.7919" style="stop-color:#78BE3E"/>
			<stop  offset="0.8622" style="stop-color:#58B240"/>
			<stop  offset="0.9311" style="stop-color:#30A442"/>
			<stop  offset="0.9975" style="stop-color:#029445"/>
			<stop  offset="1" style="stop-color:#009345"/>
		</linearGradient>
		<path class="st8" d="M642.6,771.6c-34.2,3.5-69.2,3.7-103.4-3.1c-17.2-3.1-33.8-8.4-50-15.4c-16-7.4-30.9-16.8-44-28.5
			c-13.1-11.9-24.2-25.8-32.6-41.1c-8.4-15.4-14.5-31.9-18.4-48.9c-3.9-17-5.7-34.4-5.7-51.8c0-8.6,0.4-17.4,1.2-26
			c0.8-8.6,2-17.2,3.9-25.6c-2.5,17-3.1,34.4-2.3,51.4c0.8,17.2,3.1,34.2,7.4,50.8c4.3,16.6,10.2,32.6,18.8,47.3
			c8.4,14.7,19,28,31.7,39.3c6.3,5.7,12.9,10.9,20.1,15.6c7.2,4.7,14.5,8.6,22.3,12.3c7.8,3.5,15.6,6.8,23.7,9.4
			c8.2,2.7,16.4,4.9,24.8,6.8c16.8,3.7,33.8,5.9,51,7C608.2,772.2,625.4,772.2,642.6,771.6z"/>
	</g>
	
		<linearGradient id="SVGID_8_" gradientUnits="userSpaceOnUse" x1="632.545" y1="348.6938" x2="736.733" y2="463.7671" gradientTransform="matrix(1 0 0 -1 0 1055.8898)">
		<stop  offset="3.953035e-02" style="stop-color:#80C242;stop-opacity:0"/>
		<stop  offset="0.7657" style="stop-color:#009345"/>
	</linearGradient>
	<path class="st9" d="M774.2,644.7c-4.9,10.2-10.6,20.1-17,29.7c-27.8,42.2-67.6,76.2-114.9,97.4l-35.8-133.5
		c23.5-16.4,41.6-40.1,50.4-67.6C698.3,571.2,782.4,579.8,774.2,644.7z"/>
	<g>
		<path class="st10" d="M596.1,501.8h-8c-1,0-1.8-0.8-1.8-1.8v-7.8c0-5.5-4.5-10-10.2-10l0,0c-5.7,0-10.2,4.5-10.2,10v7.8
			c0,1-0.8,1.8-1.8,1.8h-8c-5.7,0-10.2,4.5-10.2,10l0,0c0,5.5,4.5,10,10.2,10h8c1,0,1.8,0.8,1.8,1.8v7.8c0,5.5,4.5,10,10.2,10l0,0
			c5.7,0,10.2-4.5,10.2-10v-7.8c0-1,0.8-1.8,1.8-1.8h8c5.7,0,10.2-4.5,10.2-10l0,0C606.3,506.3,601.8,501.8,596.1,501.8z"/>
		<g>
			<ellipse class="st10" cx="726.9" cy="492" rx="10" ry="9.8"/>
			<ellipse class="st10" cx="726.9" cy="531.7" rx="10" ry="9.8"/>
			<ellipse class="st10" cx="706.5" cy="511.8" rx="10" ry="9.8"/>
			<ellipse class="st10" cx="747.4" cy="511.8" rx="10" ry="9.8"/>
		</g>
	</g>
	<g>
		<path class="st11" d="M774.2,644.7c1.8-9.6,0.2-19.7-3.9-28c-2-4.3-4.9-8.2-8-11.7c-3.3-3.5-6.8-6.8-10.9-9.4
			c-7.8-5.3-16.6-9.4-25.8-12.5s-18.6-5.1-28-6.6c-19-3.1-38.5-4.1-57.9-4.1c-19.4-0.2-38.9-0.8-58.3-1.6
			c19.4-0.8,38.9-1.2,58.6-1.6l14.5-0.2c4.9,0,9.8,0.2,14.7,0.4c9.8,0.6,19.7,1.4,29.3,3.1s19.2,3.7,28.7,7
			c9.2,3.3,18.4,7.6,26.4,13.5c8,5.7,14.7,13.7,18.8,22.9c1.8,4.5,3.1,9.4,3.5,14.3C776.1,634.9,775.7,640,774.2,644.7z"/>
	</g>
</g>
</svg>
