<?xml version="1.0" encoding="utf-8"?>
<!-- Generator: Adobe Illustrator 22.1.0, SVG Export Plug-In . SVG Version: 6.00 Build 0)  -->
<svg version="1.2" baseProfile="tiny" id="Layer_1" xmlns="http://www.w3.org/2000/svg" xmlns:xlink="http://www.w3.org/1999/xlink"
	 x="0px" y="0px" viewBox="0 0 637.7 637.8" xml:space="preserve">
<path fill="#2A58A9" d="M398.3,22.5c163.7,43.9,260.8,212.1,217,375.8c-43.9,163.7-212.1,260.8-375.8,217
	C75.8,571.4-21.4,403.2,22.5,239.5S234.6-21.3,398.3,22.5z"/>
<path fill="#FFFFFF" d="M286.6,492.2l45.4-51.1c0.8-0.8,0.3-2-1-2h-50c-0.3,0-0.8-0.2-1-0.5l-42.4-47.5c-0.3-0.5-0.5-1-0.3-1.5
	l71-121.8c0.3-0.5,0.3-1,0-1.3L279,216c-0.5-0.8-1.8-0.8-2.3,0l-105,180.3c-0.3,0.5-0.3,1,0,1.5l84.2,94.7c0.3,0.3,0.5,0.5,1,0.5
	h28.6C285.9,492.8,286.4,492.5,286.6,492.2"/>
<path fill="#FFFFFF" d="M317.8,145.6l-29.6,50.5c-0.3,0.5-0.3,1,0,1.3l30.6,52.6L400,389.4c0.2,0.5,0.2,1-0.3,1.5l-42.9,48
	l-45.7,51.6c-0.8,0.8-0.3,2,1,2h68.4c0.2,0,0.8-0.3,1-0.5l84.2-94.7c0.2-0.5,0.5-1,0.2-1.5L319.8,145.6
	C319.6,144.5,318.3,144.5,317.8,145.6"/>
</svg>
