<?xml version="1.0" encoding="UTF-8"?>
<!DOCTYPE svg PUBLIC "-//W3C//DTD SVG 1.1//EN" "http://www.w3.org/Graphics/SVG/1.1/DTD/svg11.dtd">
<!-- Creator: CorelDRAW X7 -->
<svg xmlns="http://www.w3.org/2000/svg" xml:space="preserve" width="7.5in" height="7.5in" version="1.1" style="shape-rendering:geometricPrecision; text-rendering:geometricPrecision; image-rendering:optimizeQuality; fill-rule:evenodd; clip-rule:evenodd"
viewBox="0 0 7500 7500"
 xmlns:xlink="http://www.w3.org/1999/xlink">
 <defs>
  <style type="text/css">
   <![CDATA[
    .fil0 {fill:none}
    .fil1 {fill:#83BD67}
    .fil2 {fill:white;fill-rule:nonzero}
   ]]>
  </style>
 </defs>
 <g id="Layer_x0020_1">
  <metadata id="CorelCorpID_0Corel-Layer"/>
  <g id="_2094728563376">
   <rect class="fil0" width="7500" height="7500"/>
   <circle class="fil1" cx="3750" cy="3750" r="3100"/>
  </g>
  <g id="dollarSign.eps">
   <path class="fil2" d="M3369 1395c272,0 543,0 815,0 -16,184 -33,369 -48,553 317,23 626,125 904,276 -120,302 -241,604 -362,906 -234,-199 -542,-309 -849,-305 -77,2 -157,17 -221,61 -42,29 -73,74 -82,124 -7,40 -5,85 17,121 25,40 69,64 113,79 90,32 187,34 281,44 221,27 443,65 652,144 162,62 317,155 428,291 105,125 166,283 189,445 27,187 19,381 -39,563 -45,146 -122,282 -222,397 -207,240 -511,384 -823,421 10,197 22,393 33,590 -258,0 -515,0 -772,0 10,-195 23,-390 32,-585 -207,-7 -412,-53 -605,-126 -187,-71 -365,-165 -531,-275 122,-314 244,-628 367,-943 139,117 287,226 449,309 174,89 367,146 563,148 93,1 189,-4 277,-36 54,-20 107,-55 131,-110 25,-58 23,-131 -15,-183 -27,-35 -65,-59 -105,-76 -54,-22 -110,-34 -167,-43 -210,-34 -421,-62 -624,-128 -163,-53 -322,-127 -452,-241 -82,-71 -150,-158 -198,-256 -72,-146 -99,-311 -97,-473 0,-181 37,-365 127,-524 78,-142 197,-258 331,-347 162,-107 343,-180 527,-239 -8,-194 -16,-388 -24,-582z"/>
  </g>
 </g>
</svg>
