<?xml version="1.0" encoding="utf-8"?>
<!-- Generator: Adobe Illustrator 22.1.0, SVG Export Plug-In . SVG Version: 6.00 Build 0)  -->
<svg version="1.2" baseProfile="tiny" id="Layer_1" xmlns="http://www.w3.org/2000/svg" xmlns:xlink="http://www.w3.org/1999/xlink"
	 x="0px" y="0px" viewBox="0 0 637.7 637.8" xml:space="preserve">
<path fill="#53AE94" d="M398.3,23.5c163.7,43.9,260.8,212.1,217,375.8c-43.9,163.7-212.1,260.8-375.8,217
	C75.8,572.4-21.4,404.2,22.5,240.5S234.6-20.3,398.3,23.5z"/>
<path fill="#FFFFFF" d="M357.9,274.9v-47.1h107.7v-71.7H172.4v71.7h107.7v47c-87.5,4-153.3,21.3-153.3,42.1S192.6,355,280.1,359
	v150.8H358V359.1c87.3-4,153-21.3,153-42.1C510.9,296.3,445.3,279,357.9,274.9 M357.9,346.3L357.9,346.3c-2.2,0.1-13.5,0.8-38.6,0.8
	c-20.1,0-34.2-0.6-39.2-0.8v0.1c-77.3-3.4-135-16.9-135-33s57.7-29.6,135-33V333c5.1,0.3,19.5,1.2,39.5,1.2c24,0,36.1-1,38.3-1.2
	v-52.6c77.2,3.4,134.7,16.9,134.7,33S435.1,342.9,357.9,346.3"/>
</svg>
