<?xml version="1.0" encoding="utf-8"?>
<!-- Generator: Adobe Illustrator 23.0.0, SVG Export Plug-In . SVG Version: 6.00 Build 0)  -->
<svg version="1.2" baseProfile="tiny" id="Warstwa_1"
	 xmlns="http://www.w3.org/2000/svg" xmlns:xlink="http://www.w3.org/1999/xlink" x="0px" y="0px" viewBox="0 0 500 500"
	 xml:space="preserve">
<path fill="#262626" d="M313.9,14.9c130.3,34.9,207.5,168.8,172.7,299c-34.9,130.3-168.8,207.5-299,172.7
	C57.3,451.6-20.1,317.8,14.8,187.6S183.6-20,313.9,14.9z"/>
<path fill="#FFFFFF" d="M348.8,138h39.7L306,223.6c-29.9,31-78.3,31-108.1,0L115.3,138H155l62.7,65c18.9,19.6,49.6,19.6,68.5,0
	L348.8,138z"/>
<path fill="#FFFFFF" d="M154.4,376.1h-39.7l83-86.1c29.9-31,78.3-31,108.1,0l83,86.1h-39.6l-63.2-65.6c-18.9-19.6-49.6-19.6-68.5,0
	L154.4,376.1z"/>
</svg>
